<mxfile host="app.diagrams.net" modified="2021-02-17T09:41:10.145Z" agent="5.0 (Windows NT 10.0; Win64; x64) AppleWebKit/537.36 (KHTML, like Gecko) Chrome/88.0.4324.96 Safari/537.36 Edg/88.0.705.56" etag="m-ob0qhIgv-nh4ZPBl5K" version="14.3.2" type="github">
  <diagram id="jRf21VEF_SOJ5ihQIUcT" name="Page-1">
    <mxGraphModel dx="1422" dy="714" grid="1" gridSize="10" guides="1" tooltips="1" connect="1" arrows="1" fold="1" page="1" pageScale="1" pageWidth="827" pageHeight="1169" math="0" shadow="0">
      <root>
        <mxCell id="0" />
        <mxCell id="1" parent="0" />
        <mxCell id="xB78Md1BmiatvJ_4oxRC-59" value="" style="shape=table;html=1;whiteSpace=wrap;startSize=0;container=1;collapsible=0;childLayout=tableLayout;" vertex="1" parent="1">
          <mxGeometry x="320" y="40" width="180" height="120" as="geometry" />
        </mxCell>
        <mxCell id="xB78Md1BmiatvJ_4oxRC-60" value="" style="shape=partialRectangle;html=1;whiteSpace=wrap;collapsible=0;dropTarget=0;pointerEvents=0;fillColor=none;top=0;left=0;bottom=0;right=0;points=[[0,0.5],[1,0.5]];portConstraint=eastwest;" vertex="1" parent="xB78Md1BmiatvJ_4oxRC-59">
          <mxGeometry width="180" height="40" as="geometry" />
        </mxCell>
        <mxCell id="xB78Md1BmiatvJ_4oxRC-61" value="" style="shape=partialRectangle;html=1;whiteSpace=wrap;connectable=0;fillColor=none;top=0;left=0;bottom=0;right=0;overflow=hidden;" vertex="1" parent="xB78Md1BmiatvJ_4oxRC-60">
          <mxGeometry width="60" height="40" as="geometry" />
        </mxCell>
        <mxCell id="xB78Md1BmiatvJ_4oxRC-62" value="" style="shape=partialRectangle;html=1;whiteSpace=wrap;connectable=0;fillColor=none;top=0;left=0;bottom=0;right=0;overflow=hidden;" vertex="1" parent="xB78Md1BmiatvJ_4oxRC-60">
          <mxGeometry x="60" width="60" height="40" as="geometry" />
        </mxCell>
        <mxCell id="xB78Md1BmiatvJ_4oxRC-63" value="" style="shape=partialRectangle;html=1;whiteSpace=wrap;connectable=0;fillColor=none;top=0;left=0;bottom=0;right=0;overflow=hidden;" vertex="1" parent="xB78Md1BmiatvJ_4oxRC-60">
          <mxGeometry x="120" width="60" height="40" as="geometry" />
        </mxCell>
        <mxCell id="xB78Md1BmiatvJ_4oxRC-64" value="" style="shape=partialRectangle;html=1;whiteSpace=wrap;collapsible=0;dropTarget=0;pointerEvents=0;fillColor=none;top=0;left=0;bottom=0;right=0;points=[[0,0.5],[1,0.5]];portConstraint=eastwest;" vertex="1" parent="xB78Md1BmiatvJ_4oxRC-59">
          <mxGeometry y="40" width="180" height="40" as="geometry" />
        </mxCell>
        <mxCell id="xB78Md1BmiatvJ_4oxRC-65" value="" style="shape=partialRectangle;html=1;whiteSpace=wrap;connectable=0;fillColor=none;top=0;left=0;bottom=0;right=0;overflow=hidden;" vertex="1" parent="xB78Md1BmiatvJ_4oxRC-64">
          <mxGeometry width="60" height="40" as="geometry" />
        </mxCell>
        <mxCell id="xB78Md1BmiatvJ_4oxRC-66" value="" style="shape=partialRectangle;html=1;whiteSpace=wrap;connectable=0;fillColor=none;top=0;left=0;bottom=0;right=0;overflow=hidden;" vertex="1" parent="xB78Md1BmiatvJ_4oxRC-64">
          <mxGeometry x="60" width="60" height="40" as="geometry" />
        </mxCell>
        <mxCell id="xB78Md1BmiatvJ_4oxRC-67" value="" style="shape=partialRectangle;html=1;whiteSpace=wrap;connectable=0;fillColor=none;top=0;left=0;bottom=0;right=0;overflow=hidden;" vertex="1" parent="xB78Md1BmiatvJ_4oxRC-64">
          <mxGeometry x="120" width="60" height="40" as="geometry" />
        </mxCell>
        <mxCell id="xB78Md1BmiatvJ_4oxRC-68" value="" style="shape=partialRectangle;html=1;whiteSpace=wrap;collapsible=0;dropTarget=0;pointerEvents=0;fillColor=none;top=0;left=0;bottom=0;right=0;points=[[0,0.5],[1,0.5]];portConstraint=eastwest;" vertex="1" parent="xB78Md1BmiatvJ_4oxRC-59">
          <mxGeometry y="80" width="180" height="40" as="geometry" />
        </mxCell>
        <mxCell id="xB78Md1BmiatvJ_4oxRC-69" value="" style="shape=partialRectangle;html=1;whiteSpace=wrap;connectable=0;fillColor=none;top=0;left=0;bottom=0;right=0;overflow=hidden;" vertex="1" parent="xB78Md1BmiatvJ_4oxRC-68">
          <mxGeometry width="60" height="40" as="geometry" />
        </mxCell>
        <mxCell id="xB78Md1BmiatvJ_4oxRC-70" value="" style="shape=partialRectangle;html=1;whiteSpace=wrap;connectable=0;fillColor=none;top=0;left=0;bottom=0;right=0;overflow=hidden;" vertex="1" parent="xB78Md1BmiatvJ_4oxRC-68">
          <mxGeometry x="60" width="60" height="40" as="geometry" />
        </mxCell>
        <mxCell id="xB78Md1BmiatvJ_4oxRC-71" value="" style="shape=partialRectangle;html=1;whiteSpace=wrap;connectable=0;fillColor=none;top=0;left=0;bottom=0;right=0;overflow=hidden;" vertex="1" parent="xB78Md1BmiatvJ_4oxRC-68">
          <mxGeometry x="120" width="60" height="40" as="geometry" />
        </mxCell>
        <mxCell id="xB78Md1BmiatvJ_4oxRC-117" value="标记" style="edgeStyle=orthogonalEdgeStyle;rounded=0;orthogonalLoop=1;jettySize=auto;html=1;fontSize=20;" edge="1" parent="1" source="xB78Md1BmiatvJ_4oxRC-72" target="xB78Md1BmiatvJ_4oxRC-96">
          <mxGeometry relative="1" as="geometry" />
        </mxCell>
        <mxCell id="xB78Md1BmiatvJ_4oxRC-72" value="" style="shape=table;html=1;whiteSpace=wrap;startSize=0;container=1;collapsible=0;childLayout=tableLayout;rowLines=1;columnLines=1;" vertex="1" parent="1">
          <mxGeometry x="320" y="40" width="240" height="160" as="geometry" />
        </mxCell>
        <mxCell id="xB78Md1BmiatvJ_4oxRC-91" style="shape=partialRectangle;html=1;whiteSpace=wrap;collapsible=0;dropTarget=0;pointerEvents=0;fillColor=none;top=0;left=0;bottom=0;right=0;points=[[0,0.5],[1,0.5]];portConstraint=eastwest;" vertex="1" parent="xB78Md1BmiatvJ_4oxRC-72">
          <mxGeometry width="240" height="40" as="geometry" />
        </mxCell>
        <mxCell id="xB78Md1BmiatvJ_4oxRC-92" style="shape=partialRectangle;html=1;whiteSpace=wrap;connectable=0;fillColor=#0050ef;top=0;left=0;bottom=0;right=0;overflow=hidden;strokeColor=#001DBC;fontColor=#ffffff;" vertex="1" parent="xB78Md1BmiatvJ_4oxRC-91">
          <mxGeometry width="60" height="40" as="geometry" />
        </mxCell>
        <mxCell id="xB78Md1BmiatvJ_4oxRC-93" style="shape=partialRectangle;html=1;whiteSpace=wrap;connectable=0;fillColor=#0050ef;top=0;left=0;bottom=0;right=0;overflow=hidden;strokeColor=#001DBC;fontColor=#ffffff;" vertex="1" parent="xB78Md1BmiatvJ_4oxRC-91">
          <mxGeometry x="60" width="60" height="40" as="geometry" />
        </mxCell>
        <mxCell id="xB78Md1BmiatvJ_4oxRC-94" style="shape=partialRectangle;html=1;whiteSpace=wrap;connectable=0;fillColor=#0050ef;top=0;left=0;bottom=0;right=0;overflow=hidden;strokeColor=#001DBC;fontColor=#ffffff;" vertex="1" parent="xB78Md1BmiatvJ_4oxRC-91">
          <mxGeometry x="120" width="60" height="40" as="geometry" />
        </mxCell>
        <mxCell id="xB78Md1BmiatvJ_4oxRC-95" style="shape=partialRectangle;html=1;whiteSpace=wrap;connectable=0;fillColor=none;top=0;left=0;bottom=0;right=0;overflow=hidden;" vertex="1" parent="xB78Md1BmiatvJ_4oxRC-91">
          <mxGeometry x="180" width="60" height="40" as="geometry" />
        </mxCell>
        <mxCell id="xB78Md1BmiatvJ_4oxRC-73" value="" style="shape=partialRectangle;html=1;whiteSpace=wrap;collapsible=0;dropTarget=0;pointerEvents=0;fillColor=none;top=0;left=0;bottom=0;right=0;points=[[0,0.5],[1,0.5]];portConstraint=eastwest;" vertex="1" parent="xB78Md1BmiatvJ_4oxRC-72">
          <mxGeometry y="40" width="240" height="40" as="geometry" />
        </mxCell>
        <mxCell id="xB78Md1BmiatvJ_4oxRC-85" style="shape=partialRectangle;html=1;whiteSpace=wrap;connectable=0;fillColor=none;top=0;left=0;bottom=0;right=0;overflow=hidden;" vertex="1" parent="xB78Md1BmiatvJ_4oxRC-73">
          <mxGeometry width="60" height="40" as="geometry" />
        </mxCell>
        <mxCell id="xB78Md1BmiatvJ_4oxRC-74" value="" style="shape=partialRectangle;html=1;whiteSpace=wrap;connectable=0;fillColor=#0050ef;top=0;left=0;bottom=0;right=0;overflow=hidden;strokeColor=#001DBC;fontColor=#ffffff;" vertex="1" parent="xB78Md1BmiatvJ_4oxRC-73">
          <mxGeometry x="60" width="60" height="40" as="geometry" />
        </mxCell>
        <mxCell id="xB78Md1BmiatvJ_4oxRC-75" value="" style="shape=partialRectangle;html=1;whiteSpace=wrap;connectable=0;fillColor=#0050ef;top=0;left=0;bottom=0;right=0;overflow=hidden;strokeColor=#001DBC;fontColor=#ffffff;" vertex="1" parent="xB78Md1BmiatvJ_4oxRC-73">
          <mxGeometry x="120" width="60" height="40" as="geometry" />
        </mxCell>
        <mxCell id="xB78Md1BmiatvJ_4oxRC-88" style="shape=partialRectangle;html=1;whiteSpace=wrap;connectable=0;fillColor=none;top=0;left=0;bottom=0;right=0;overflow=hidden;" vertex="1" parent="xB78Md1BmiatvJ_4oxRC-73">
          <mxGeometry x="180" width="60" height="40" as="geometry" />
        </mxCell>
        <mxCell id="xB78Md1BmiatvJ_4oxRC-77" value="" style="shape=partialRectangle;html=1;whiteSpace=wrap;collapsible=0;dropTarget=0;pointerEvents=0;fillColor=none;top=0;left=0;bottom=0;right=0;points=[[0,0.5],[1,0.5]];portConstraint=eastwest;" vertex="1" parent="xB78Md1BmiatvJ_4oxRC-72">
          <mxGeometry y="80" width="240" height="40" as="geometry" />
        </mxCell>
        <mxCell id="xB78Md1BmiatvJ_4oxRC-86" style="shape=partialRectangle;html=1;whiteSpace=wrap;connectable=0;fillColor=none;top=0;left=0;bottom=0;right=0;overflow=hidden;" vertex="1" parent="xB78Md1BmiatvJ_4oxRC-77">
          <mxGeometry width="60" height="40" as="geometry" />
        </mxCell>
        <mxCell id="xB78Md1BmiatvJ_4oxRC-78" value="" style="shape=partialRectangle;html=1;whiteSpace=wrap;connectable=0;fillColor=#0050ef;top=0;left=0;bottom=0;right=0;overflow=hidden;strokeColor=#001DBC;fontColor=#ffffff;" vertex="1" parent="xB78Md1BmiatvJ_4oxRC-77">
          <mxGeometry x="60" width="60" height="40" as="geometry" />
        </mxCell>
        <mxCell id="xB78Md1BmiatvJ_4oxRC-79" value="" style="shape=partialRectangle;html=1;whiteSpace=wrap;connectable=0;fillColor=none;top=0;left=0;bottom=0;right=0;overflow=hidden;" vertex="1" parent="xB78Md1BmiatvJ_4oxRC-77">
          <mxGeometry x="120" width="60" height="40" as="geometry" />
        </mxCell>
        <mxCell id="xB78Md1BmiatvJ_4oxRC-89" style="shape=partialRectangle;html=1;whiteSpace=wrap;connectable=0;fillColor=#0050ef;top=0;left=0;bottom=0;right=0;overflow=hidden;strokeColor=#001DBC;fontColor=#ffffff;" vertex="1" parent="xB78Md1BmiatvJ_4oxRC-77">
          <mxGeometry x="180" width="60" height="40" as="geometry" />
        </mxCell>
        <mxCell id="xB78Md1BmiatvJ_4oxRC-81" value="" style="shape=partialRectangle;html=1;whiteSpace=wrap;collapsible=0;dropTarget=0;pointerEvents=0;fillColor=none;top=0;left=0;bottom=0;right=0;points=[[0,0.5],[1,0.5]];portConstraint=eastwest;" vertex="1" parent="xB78Md1BmiatvJ_4oxRC-72">
          <mxGeometry y="120" width="240" height="40" as="geometry" />
        </mxCell>
        <mxCell id="xB78Md1BmiatvJ_4oxRC-87" style="shape=partialRectangle;html=1;whiteSpace=wrap;connectable=0;fillColor=#0050ef;top=0;left=0;bottom=0;right=0;overflow=hidden;strokeColor=#001DBC;fontColor=#ffffff;" vertex="1" parent="xB78Md1BmiatvJ_4oxRC-81">
          <mxGeometry width="60" height="40" as="geometry" />
        </mxCell>
        <mxCell id="xB78Md1BmiatvJ_4oxRC-82" value="" style="shape=partialRectangle;html=1;whiteSpace=wrap;connectable=0;fillColor=none;top=0;left=0;bottom=0;right=0;overflow=hidden;" vertex="1" parent="xB78Md1BmiatvJ_4oxRC-81">
          <mxGeometry x="60" width="60" height="40" as="geometry" />
        </mxCell>
        <mxCell id="xB78Md1BmiatvJ_4oxRC-83" value="" style="shape=partialRectangle;html=1;whiteSpace=wrap;connectable=0;fillColor=#0050ef;top=0;left=0;bottom=0;right=0;overflow=hidden;strokeColor=#001DBC;fontColor=#ffffff;" vertex="1" parent="xB78Md1BmiatvJ_4oxRC-81">
          <mxGeometry x="120" width="60" height="40" as="geometry" />
        </mxCell>
        <mxCell id="xB78Md1BmiatvJ_4oxRC-90" style="shape=partialRectangle;html=1;whiteSpace=wrap;connectable=0;fillColor=none;top=0;left=0;bottom=0;right=0;overflow=hidden;" vertex="1" parent="xB78Md1BmiatvJ_4oxRC-81">
          <mxGeometry x="180" width="60" height="40" as="geometry" />
        </mxCell>
        <mxCell id="xB78Md1BmiatvJ_4oxRC-139" value="&lt;font style=&quot;font-size: 20px&quot;&gt;清除&lt;/font&gt;" style="edgeStyle=orthogonalEdgeStyle;rounded=0;orthogonalLoop=1;jettySize=auto;html=1;" edge="1" parent="1" source="xB78Md1BmiatvJ_4oxRC-96" target="xB78Md1BmiatvJ_4oxRC-118">
          <mxGeometry relative="1" as="geometry" />
        </mxCell>
        <mxCell id="xB78Md1BmiatvJ_4oxRC-96" value="" style="shape=table;html=1;whiteSpace=wrap;startSize=0;container=1;collapsible=0;childLayout=tableLayout;rowLines=1;columnLines=1;" vertex="1" parent="1">
          <mxGeometry x="320" y="280" width="240" height="160" as="geometry" />
        </mxCell>
        <mxCell id="xB78Md1BmiatvJ_4oxRC-97" style="shape=partialRectangle;html=1;whiteSpace=wrap;collapsible=0;dropTarget=0;pointerEvents=0;fillColor=none;top=0;left=0;bottom=0;right=0;points=[[0,0.5],[1,0.5]];portConstraint=eastwest;" vertex="1" parent="xB78Md1BmiatvJ_4oxRC-96">
          <mxGeometry width="240" height="40" as="geometry" />
        </mxCell>
        <mxCell id="xB78Md1BmiatvJ_4oxRC-98" style="shape=partialRectangle;html=1;whiteSpace=wrap;connectable=0;fillColor=#0050ef;top=0;left=0;bottom=0;right=0;overflow=hidden;strokeColor=#001DBC;fontColor=#ffffff;" vertex="1" parent="xB78Md1BmiatvJ_4oxRC-97">
          <mxGeometry width="60" height="40" as="geometry" />
        </mxCell>
        <mxCell id="xB78Md1BmiatvJ_4oxRC-99" style="shape=partialRectangle;html=1;whiteSpace=wrap;connectable=0;fillColor=#0050ef;top=0;left=0;bottom=0;right=0;overflow=hidden;strokeColor=#001DBC;fontColor=#ffffff;" vertex="1" parent="xB78Md1BmiatvJ_4oxRC-97">
          <mxGeometry x="60" width="60" height="40" as="geometry" />
        </mxCell>
        <mxCell id="xB78Md1BmiatvJ_4oxRC-100" style="shape=partialRectangle;html=1;whiteSpace=wrap;connectable=0;fillColor=#0050ef;top=0;left=0;bottom=0;right=0;overflow=hidden;strokeColor=#001DBC;fontColor=#ffffff;" vertex="1" parent="xB78Md1BmiatvJ_4oxRC-97">
          <mxGeometry x="120" width="60" height="40" as="geometry" />
        </mxCell>
        <mxCell id="xB78Md1BmiatvJ_4oxRC-101" style="shape=partialRectangle;html=1;whiteSpace=wrap;connectable=0;fillColor=none;top=0;left=0;bottom=0;right=0;overflow=hidden;" vertex="1" parent="xB78Md1BmiatvJ_4oxRC-97">
          <mxGeometry x="180" width="60" height="40" as="geometry" />
        </mxCell>
        <mxCell id="xB78Md1BmiatvJ_4oxRC-102" value="" style="shape=partialRectangle;html=1;whiteSpace=wrap;collapsible=0;dropTarget=0;pointerEvents=0;fillColor=none;top=0;left=0;bottom=0;right=0;points=[[0,0.5],[1,0.5]];portConstraint=eastwest;" vertex="1" parent="xB78Md1BmiatvJ_4oxRC-96">
          <mxGeometry y="40" width="240" height="40" as="geometry" />
        </mxCell>
        <mxCell id="xB78Md1BmiatvJ_4oxRC-103" style="shape=partialRectangle;html=1;whiteSpace=wrap;connectable=0;fillColor=none;top=0;left=0;bottom=0;right=0;overflow=hidden;" vertex="1" parent="xB78Md1BmiatvJ_4oxRC-102">
          <mxGeometry width="60" height="40" as="geometry" />
        </mxCell>
        <mxCell id="xB78Md1BmiatvJ_4oxRC-104" value="" style="shape=partialRectangle;html=1;whiteSpace=wrap;connectable=0;fillColor=#d80073;top=0;left=0;bottom=0;right=0;overflow=hidden;strokeColor=#A50040;fontColor=#ffffff;" vertex="1" parent="xB78Md1BmiatvJ_4oxRC-102">
          <mxGeometry x="60" width="60" height="40" as="geometry" />
        </mxCell>
        <mxCell id="xB78Md1BmiatvJ_4oxRC-105" value="" style="shape=partialRectangle;html=1;whiteSpace=wrap;connectable=0;fillColor=#0050ef;top=0;left=0;bottom=0;right=0;overflow=hidden;strokeColor=#001DBC;fontColor=#ffffff;" vertex="1" parent="xB78Md1BmiatvJ_4oxRC-102">
          <mxGeometry x="120" width="60" height="40" as="geometry" />
        </mxCell>
        <mxCell id="xB78Md1BmiatvJ_4oxRC-106" style="shape=partialRectangle;html=1;whiteSpace=wrap;connectable=0;fillColor=none;top=0;left=0;bottom=0;right=0;overflow=hidden;" vertex="1" parent="xB78Md1BmiatvJ_4oxRC-102">
          <mxGeometry x="180" width="60" height="40" as="geometry" />
        </mxCell>
        <mxCell id="xB78Md1BmiatvJ_4oxRC-107" value="" style="shape=partialRectangle;html=1;whiteSpace=wrap;collapsible=0;dropTarget=0;pointerEvents=0;fillColor=none;top=0;left=0;bottom=0;right=0;points=[[0,0.5],[1,0.5]];portConstraint=eastwest;" vertex="1" parent="xB78Md1BmiatvJ_4oxRC-96">
          <mxGeometry y="80" width="240" height="40" as="geometry" />
        </mxCell>
        <mxCell id="xB78Md1BmiatvJ_4oxRC-108" style="shape=partialRectangle;html=1;whiteSpace=wrap;connectable=0;fillColor=none;top=0;left=0;bottom=0;right=0;overflow=hidden;" vertex="1" parent="xB78Md1BmiatvJ_4oxRC-107">
          <mxGeometry width="60" height="40" as="geometry" />
        </mxCell>
        <mxCell id="xB78Md1BmiatvJ_4oxRC-109" value="" style="shape=partialRectangle;html=1;whiteSpace=wrap;connectable=0;fillColor=#d80073;top=0;left=0;bottom=0;right=0;overflow=hidden;strokeColor=#A50040;fontColor=#ffffff;" vertex="1" parent="xB78Md1BmiatvJ_4oxRC-107">
          <mxGeometry x="60" width="60" height="40" as="geometry" />
        </mxCell>
        <mxCell id="xB78Md1BmiatvJ_4oxRC-110" value="" style="shape=partialRectangle;html=1;whiteSpace=wrap;connectable=0;fillColor=none;top=0;left=0;bottom=0;right=0;overflow=hidden;" vertex="1" parent="xB78Md1BmiatvJ_4oxRC-107">
          <mxGeometry x="120" width="60" height="40" as="geometry" />
        </mxCell>
        <mxCell id="xB78Md1BmiatvJ_4oxRC-111" style="shape=partialRectangle;html=1;whiteSpace=wrap;connectable=0;fillColor=#d80073;top=0;left=0;bottom=0;right=0;overflow=hidden;strokeColor=#A50040;fontColor=#ffffff;" vertex="1" parent="xB78Md1BmiatvJ_4oxRC-107">
          <mxGeometry x="180" width="60" height="40" as="geometry" />
        </mxCell>
        <mxCell id="xB78Md1BmiatvJ_4oxRC-112" value="" style="shape=partialRectangle;html=1;whiteSpace=wrap;collapsible=0;dropTarget=0;pointerEvents=0;fillColor=none;top=0;left=0;bottom=0;right=0;points=[[0,0.5],[1,0.5]];portConstraint=eastwest;" vertex="1" parent="xB78Md1BmiatvJ_4oxRC-96">
          <mxGeometry y="120" width="240" height="40" as="geometry" />
        </mxCell>
        <mxCell id="xB78Md1BmiatvJ_4oxRC-113" style="shape=partialRectangle;html=1;whiteSpace=wrap;connectable=0;fillColor=#0050ef;top=0;left=0;bottom=0;right=0;overflow=hidden;strokeColor=#001DBC;fontColor=#ffffff;" vertex="1" parent="xB78Md1BmiatvJ_4oxRC-112">
          <mxGeometry width="60" height="40" as="geometry" />
        </mxCell>
        <mxCell id="xB78Md1BmiatvJ_4oxRC-114" value="" style="shape=partialRectangle;html=1;whiteSpace=wrap;connectable=0;fillColor=none;top=0;left=0;bottom=0;right=0;overflow=hidden;" vertex="1" parent="xB78Md1BmiatvJ_4oxRC-112">
          <mxGeometry x="60" width="60" height="40" as="geometry" />
        </mxCell>
        <mxCell id="xB78Md1BmiatvJ_4oxRC-115" value="" style="shape=partialRectangle;html=1;whiteSpace=wrap;connectable=0;fillColor=#0050ef;top=0;left=0;bottom=0;right=0;overflow=hidden;strokeColor=#001DBC;fontColor=#ffffff;" vertex="1" parent="xB78Md1BmiatvJ_4oxRC-112">
          <mxGeometry x="120" width="60" height="40" as="geometry" />
        </mxCell>
        <mxCell id="xB78Md1BmiatvJ_4oxRC-116" style="shape=partialRectangle;html=1;whiteSpace=wrap;connectable=0;fillColor=none;top=0;left=0;bottom=0;right=0;overflow=hidden;" vertex="1" parent="xB78Md1BmiatvJ_4oxRC-112">
          <mxGeometry x="180" width="60" height="40" as="geometry" />
        </mxCell>
        <mxCell id="xB78Md1BmiatvJ_4oxRC-118" value="" style="shape=table;html=1;whiteSpace=wrap;startSize=0;container=1;collapsible=0;childLayout=tableLayout;rowLines=1;columnLines=1;" vertex="1" parent="1">
          <mxGeometry x="320" y="520" width="240" height="160" as="geometry" />
        </mxCell>
        <mxCell id="xB78Md1BmiatvJ_4oxRC-119" style="shape=partialRectangle;html=1;whiteSpace=wrap;collapsible=0;dropTarget=0;pointerEvents=0;fillColor=none;top=0;left=0;bottom=0;right=0;points=[[0,0.5],[1,0.5]];portConstraint=eastwest;" vertex="1" parent="xB78Md1BmiatvJ_4oxRC-118">
          <mxGeometry width="240" height="40" as="geometry" />
        </mxCell>
        <mxCell id="xB78Md1BmiatvJ_4oxRC-120" style="shape=partialRectangle;html=1;whiteSpace=wrap;connectable=0;fillColor=#0050ef;top=0;left=0;bottom=0;right=0;overflow=hidden;strokeColor=#001DBC;fontColor=#ffffff;" vertex="1" parent="xB78Md1BmiatvJ_4oxRC-119">
          <mxGeometry width="60" height="40" as="geometry" />
        </mxCell>
        <mxCell id="xB78Md1BmiatvJ_4oxRC-121" style="shape=partialRectangle;html=1;whiteSpace=wrap;connectable=0;fillColor=#0050ef;top=0;left=0;bottom=0;right=0;overflow=hidden;strokeColor=#001DBC;fontColor=#ffffff;" vertex="1" parent="xB78Md1BmiatvJ_4oxRC-119">
          <mxGeometry x="60" width="60" height="40" as="geometry" />
        </mxCell>
        <mxCell id="xB78Md1BmiatvJ_4oxRC-122" style="shape=partialRectangle;html=1;whiteSpace=wrap;connectable=0;fillColor=#0050ef;top=0;left=0;bottom=0;right=0;overflow=hidden;strokeColor=#001DBC;fontColor=#ffffff;" vertex="1" parent="xB78Md1BmiatvJ_4oxRC-119">
          <mxGeometry x="120" width="60" height="40" as="geometry" />
        </mxCell>
        <mxCell id="xB78Md1BmiatvJ_4oxRC-123" style="shape=partialRectangle;html=1;whiteSpace=wrap;connectable=0;fillColor=none;top=0;left=0;bottom=0;right=0;overflow=hidden;" vertex="1" parent="xB78Md1BmiatvJ_4oxRC-119">
          <mxGeometry x="180" width="60" height="40" as="geometry" />
        </mxCell>
        <mxCell id="xB78Md1BmiatvJ_4oxRC-124" value="" style="shape=partialRectangle;html=1;whiteSpace=wrap;collapsible=0;dropTarget=0;pointerEvents=0;fillColor=none;top=0;left=0;bottom=0;right=0;points=[[0,0.5],[1,0.5]];portConstraint=eastwest;" vertex="1" parent="xB78Md1BmiatvJ_4oxRC-118">
          <mxGeometry y="40" width="240" height="40" as="geometry" />
        </mxCell>
        <mxCell id="xB78Md1BmiatvJ_4oxRC-125" style="shape=partialRectangle;html=1;whiteSpace=wrap;connectable=0;fillColor=none;top=0;left=0;bottom=0;right=0;overflow=hidden;" vertex="1" parent="xB78Md1BmiatvJ_4oxRC-124">
          <mxGeometry width="60" height="40" as="geometry" />
        </mxCell>
        <mxCell id="xB78Md1BmiatvJ_4oxRC-126" value="" style="shape=partialRectangle;html=1;whiteSpace=wrap;connectable=0;top=0;left=0;bottom=0;right=0;overflow=hidden;" vertex="1" parent="xB78Md1BmiatvJ_4oxRC-124">
          <mxGeometry x="60" width="60" height="40" as="geometry" />
        </mxCell>
        <mxCell id="xB78Md1BmiatvJ_4oxRC-127" value="" style="shape=partialRectangle;html=1;whiteSpace=wrap;connectable=0;fillColor=#0050ef;top=0;left=0;bottom=0;right=0;overflow=hidden;strokeColor=#001DBC;fontColor=#ffffff;" vertex="1" parent="xB78Md1BmiatvJ_4oxRC-124">
          <mxGeometry x="120" width="60" height="40" as="geometry" />
        </mxCell>
        <mxCell id="xB78Md1BmiatvJ_4oxRC-128" style="shape=partialRectangle;html=1;whiteSpace=wrap;connectable=0;fillColor=none;top=0;left=0;bottom=0;right=0;overflow=hidden;" vertex="1" parent="xB78Md1BmiatvJ_4oxRC-124">
          <mxGeometry x="180" width="60" height="40" as="geometry" />
        </mxCell>
        <mxCell id="xB78Md1BmiatvJ_4oxRC-129" value="" style="shape=partialRectangle;html=1;whiteSpace=wrap;collapsible=0;dropTarget=0;pointerEvents=0;fillColor=none;top=0;left=0;bottom=0;right=0;points=[[0,0.5],[1,0.5]];portConstraint=eastwest;" vertex="1" parent="xB78Md1BmiatvJ_4oxRC-118">
          <mxGeometry y="80" width="240" height="40" as="geometry" />
        </mxCell>
        <mxCell id="xB78Md1BmiatvJ_4oxRC-130" style="shape=partialRectangle;html=1;whiteSpace=wrap;connectable=0;fillColor=none;top=0;left=0;bottom=0;right=0;overflow=hidden;" vertex="1" parent="xB78Md1BmiatvJ_4oxRC-129">
          <mxGeometry width="60" height="40" as="geometry" />
        </mxCell>
        <mxCell id="xB78Md1BmiatvJ_4oxRC-131" value="" style="shape=partialRectangle;html=1;whiteSpace=wrap;connectable=0;top=0;left=0;bottom=0;right=0;overflow=hidden;" vertex="1" parent="xB78Md1BmiatvJ_4oxRC-129">
          <mxGeometry x="60" width="60" height="40" as="geometry" />
        </mxCell>
        <mxCell id="xB78Md1BmiatvJ_4oxRC-132" value="" style="shape=partialRectangle;html=1;whiteSpace=wrap;connectable=0;fillColor=none;top=0;left=0;bottom=0;right=0;overflow=hidden;" vertex="1" parent="xB78Md1BmiatvJ_4oxRC-129">
          <mxGeometry x="120" width="60" height="40" as="geometry" />
        </mxCell>
        <mxCell id="xB78Md1BmiatvJ_4oxRC-133" style="shape=partialRectangle;html=1;whiteSpace=wrap;connectable=0;top=0;left=0;bottom=0;right=0;overflow=hidden;" vertex="1" parent="xB78Md1BmiatvJ_4oxRC-129">
          <mxGeometry x="180" width="60" height="40" as="geometry" />
        </mxCell>
        <mxCell id="xB78Md1BmiatvJ_4oxRC-134" value="" style="shape=partialRectangle;html=1;whiteSpace=wrap;collapsible=0;dropTarget=0;pointerEvents=0;fillColor=none;top=0;left=0;bottom=0;right=0;points=[[0,0.5],[1,0.5]];portConstraint=eastwest;" vertex="1" parent="xB78Md1BmiatvJ_4oxRC-118">
          <mxGeometry y="120" width="240" height="40" as="geometry" />
        </mxCell>
        <mxCell id="xB78Md1BmiatvJ_4oxRC-135" style="shape=partialRectangle;html=1;whiteSpace=wrap;connectable=0;fillColor=#0050ef;top=0;left=0;bottom=0;right=0;overflow=hidden;strokeColor=#001DBC;fontColor=#ffffff;" vertex="1" parent="xB78Md1BmiatvJ_4oxRC-134">
          <mxGeometry width="60" height="40" as="geometry" />
        </mxCell>
        <mxCell id="xB78Md1BmiatvJ_4oxRC-136" value="" style="shape=partialRectangle;html=1;whiteSpace=wrap;connectable=0;fillColor=none;top=0;left=0;bottom=0;right=0;overflow=hidden;" vertex="1" parent="xB78Md1BmiatvJ_4oxRC-134">
          <mxGeometry x="60" width="60" height="40" as="geometry" />
        </mxCell>
        <mxCell id="xB78Md1BmiatvJ_4oxRC-137" value="" style="shape=partialRectangle;html=1;whiteSpace=wrap;connectable=0;fillColor=#0050ef;top=0;left=0;bottom=0;right=0;overflow=hidden;strokeColor=#001DBC;fontColor=#ffffff;" vertex="1" parent="xB78Md1BmiatvJ_4oxRC-134">
          <mxGeometry x="120" width="60" height="40" as="geometry" />
        </mxCell>
        <mxCell id="xB78Md1BmiatvJ_4oxRC-138" style="shape=partialRectangle;html=1;whiteSpace=wrap;connectable=0;fillColor=none;top=0;left=0;bottom=0;right=0;overflow=hidden;" vertex="1" parent="xB78Md1BmiatvJ_4oxRC-134">
          <mxGeometry x="180" width="60" height="40" as="geometry" />
        </mxCell>
      </root>
    </mxGraphModel>
  </diagram>
</mxfile>
